<svg width="100%" viewBox="0 0 680 660" xmlns="http://www.w3.org/2000/svg">
<defs>
  <marker id="arrow" viewBox="0 0 10 10" refX="8" refY="5" markerWidth="6" markerHeight="6" orient="auto-start-reverse">
    <path d="M2 1L8 5L2 9" fill="none" stroke="context-stroke" stroke-width="1.5" stroke-linecap="round" stroke-linejoin="round"/>
  </marker>
  <marker id="arrow-input" viewBox="0 0 10 10" refX="8" refY="5" markerWidth="5" markerHeight="5" orient="auto-start-reverse">
    <path d="M2 1L8 5L2 9" fill="none" stroke="context-stroke" stroke-width="1.5" stroke-linecap="round" stroke-linejoin="round"/>
  </marker>
</defs>

<!-- LIVSSYKLUS -->
<rect x="30" y="30" width="106" height="44" rx="8" fill="#E6F1FB" stroke="#378ADD" stroke-width="0.5"/>
<text font-family="sans-serif" font-size="14" font-weight="500" fill="#0C447C" x="83" y="52" text-anchor="middle" dominant-baseline="central">Planlegging</text>
<rect x="72" y="10" width="14" height="17" rx="2" fill="#E6F1FB" stroke="#378ADD" stroke-width="1"/>
<polyline points="79,10 86,10 86,27 72,27 72,16 79,10" fill="#E6F1FB" stroke="#378ADD" stroke-width="1"/>
<polyline points="79,10 79,16 86,16" fill="none" stroke="#378ADD" stroke-width="1"/>
<line x1="75" y1="20" x2="83" y2="20" stroke="#378ADD" stroke-width="1"/>
<line x1="75" y1="23" x2="83" y2="23" stroke="#378ADD" stroke-width="1"/>

<rect x="152" y="30" width="106" height="44" rx="8" fill="#E1F5EE" stroke="#1D9E75" stroke-width="0.5"/>
<text font-family="sans-serif" font-size="14" font-weight="500" fill="#085041" x="205" y="52" text-anchor="middle" dominant-baseline="central">Design</text>
<path d="M200 10 L208 18 L203 23 L195 15 Z" fill="#E1F5EE" stroke="#1D9E75" stroke-width="1"/>
<line x1="195" y1="15" x2="192" y2="26" stroke="#1D9E75" stroke-width="1"/>
<line x1="203" y1="23" x2="192" y2="26" stroke="#1D9E75" stroke-width="1"/>
<line x1="205" y1="12" x2="211" y2="18" stroke="#1D9E75" stroke-width="1.2"/>

<rect x="274" y="30" width="106" height="44" rx="8" fill="#FAEEDA" stroke="#BA7517" stroke-width="0.5"/>
<text font-family="sans-serif" font-size="14" font-weight="500" fill="#633806" x="327" y="52" text-anchor="middle" dominant-baseline="central">Implementasjon</text>
<circle cx="327" cy="17" r="5" fill="none" stroke="#BA7517" stroke-width="1.5"/>
<circle cx="327" cy="17" r="2" fill="#BA7517"/>
<line x1="327" y1="10" x2="327" y2="12" stroke="#BA7517" stroke-width="1.5"/>
<line x1="327" y1="22" x2="327" y2="24" stroke="#BA7517" stroke-width="1.5"/>
<line x1="320" y1="17" x2="322" y2="17" stroke="#BA7517" stroke-width="1.5"/>
<line x1="332" y1="17" x2="334" y2="17" stroke="#BA7517" stroke-width="1.5"/>
<line x1="322" y1="12" x2="323" y2="14" stroke="#BA7517" stroke-width="1.5"/>
<line x1="331" y1="20" x2="332" y2="22" stroke="#BA7517" stroke-width="1.5"/>
<line x1="322" y1="22" x2="323" y2="20" stroke="#BA7517" stroke-width="1.5"/>
<line x1="331" y1="14" x2="332" y2="12" stroke="#BA7517" stroke-width="1.5"/>

<rect x="396" y="30" width="106" height="44" rx="8" fill="#FAECE7" stroke="#D85A30" stroke-width="0.5"/>
<text font-family="sans-serif" font-size="14" font-weight="500" fill="#712B13" x="449" y="52" text-anchor="middle" dominant-baseline="central">Verifikasjon</text>
<circle cx="449" cy="17" r="8" fill="none" stroke="#D85A30" stroke-width="1.2"/>
<polyline points="444,17 448,21 455,13" fill="none" stroke="#D85A30" stroke-width="1.5" stroke-linecap="round" stroke-linejoin="round"/>

<rect x="518" y="30" width="132" height="44" rx="8" fill="#EEEDFE" stroke="#7F77DD" stroke-width="0.5"/>
<text font-family="sans-serif" font-size="14" font-weight="500" fill="#3C3489" x="584" y="52" text-anchor="middle" dominant-baseline="central">Drift og vedlikehold</text>
<circle cx="584" cy="17" r="8" fill="none" stroke="#7F77DD" stroke-width="1.2"/>
<line x1="584" y1="11" x2="584" y2="17" stroke="#7F77DD" stroke-width="1.5" stroke-linecap="round"/>
<line x1="584" y1="17" x2="589" y2="20" stroke="#7F77DD" stroke-width="1.5" stroke-linecap="round"/>

<!-- Piler mellom faser -->
<line x1="136" y1="52" x2="150" y2="52" stroke="#888" stroke-width="1.5" marker-end="url(#arrow)"/>
<line x1="258" y1="52" x2="272" y2="52" stroke="#888" stroke-width="1.5" marker-end="url(#arrow)"/>
<line x1="380" y1="52" x2="394" y2="52" stroke="#888" stroke-width="1.5" marker-end="url(#arrow)"/>
<line x1="502" y1="52" x2="516" y2="52" stroke="#888" stroke-width="1.5" marker-end="url(#arrow)"/>

<!-- MÅL -->
<rect x="30" y="84" width="106" height="72" rx="8" fill="#E6F1FB" stroke="#378ADD" stroke-width="0.5"/>
<text font-family="sans-serif" font-size="11" fill="#185FA5" x="83" y="101" text-anchor="middle">Avklare hva</text>
<text font-family="sans-serif" font-size="11" fill="#185FA5" x="83" y="115" text-anchor="middle">systemet skal gjøre</text>
<text font-family="sans-serif" font-size="11" fill="#185FA5" x="83" y="129" text-anchor="middle">og definere</text>
<text font-family="sans-serif" font-size="11" fill="#185FA5" x="83" y="143" text-anchor="middle">sikkerhetskrav tidlig</text>

<rect x="152" y="84" width="106" height="72" rx="8" fill="#E1F5EE" stroke="#1D9E75" stroke-width="0.5"/>
<text font-family="sans-serif" font-size="11" fill="#0F6E56" x="205" y="101" text-anchor="middle">Utforme en sikker</text>
<text font-family="sans-serif" font-size="11" fill="#0F6E56" x="205" y="115" text-anchor="middle">arkitektur med</text>
<text font-family="sans-serif" font-size="11" fill="#0F6E56" x="205" y="129" text-anchor="middle">tydelig dataflyt og</text>
<text font-family="sans-serif" font-size="11" fill="#0F6E56" x="205" y="143" text-anchor="middle">trusselbilde</text>

<rect x="274" y="84" width="106" height="72" rx="8" fill="#FAEEDA" stroke="#BA7517" stroke-width="0.5"/>
<text font-family="sans-serif" font-size="11" fill="#854F0B" x="327" y="101" text-anchor="middle">Sikre at koden</text>
<text font-family="sans-serif" font-size="11" fill="#854F0B" x="327" y="115" text-anchor="middle">utvikles iht.</text>
<text font-family="sans-serif" font-size="11" fill="#854F0B" x="327" y="129" text-anchor="middle">sikkerhetskrav</text>

<rect x="396" y="84" width="106" height="72" rx="8" fill="#FAECE7" stroke="#D85A30" stroke-width="0.5"/>
<text font-family="sans-serif" font-size="11" fill="#993C1D" x="449" y="101" text-anchor="middle">Verifisere at</text>
<text font-family="sans-serif" font-size="11" fill="#993C1D" x="449" y="115" text-anchor="middle">implementasjonen</text>
<text font-family="sans-serif" font-size="11" fill="#993C1D" x="449" y="129" text-anchor="middle">møter sikkerhets-</text>
<text font-family="sans-serif" font-size="11" fill="#993C1D" x="449" y="143" text-anchor="middle">kravene</text>

<rect x="518" y="84" width="132" height="72" rx="8" fill="#EEEDFE" stroke="#7F77DD" stroke-width="0.5"/>
<text font-family="sans-serif" font-size="11" fill="#534AB7" x="584" y="101" text-anchor="middle">Sikre trygg</text>
<text font-family="sans-serif" font-size="11" fill="#534AB7" x="584" y="115" text-anchor="middle">produksjonssetting,</text>
<text font-family="sans-serif" font-size="11" fill="#534AB7" x="584" y="129" text-anchor="middle">stabil drift og</text>
<text font-family="sans-serif" font-size="11" fill="#534AB7" x="584" y="143" text-anchor="middle">vedlikehold</text>

<!-- Tilbakeloop -->
<path d="M650 168 Q660 186 340 186 Q20 186 20 168" fill="none" stroke="#888" stroke-width="1" stroke-dasharray="4 3" marker-end="url(#arrow)"/>
<text font-family="sans-serif" font-size="11" fill="#888780" x="340" y="200" text-anchor="middle">Iterasjon / ny syklus</text>

<!-- VURDERINGER -->
<text font-family="sans-serif" font-size="14" font-weight="500" fill="#2C2C2A" x="340" y="222" text-anchor="middle">Vurderinger</text>
<line x1="80" y1="229" x2="600" y2="229" stroke="#D3D1C7" stroke-width="0.5"/>

<!-- Verdivurdering -->
<rect x="30" y="238" width="194" height="110" rx="8" fill="#F1EFE8" stroke="#B4B2A9" stroke-width="0.5"/>
<text font-family="sans-serif" font-size="11" font-weight="500" fill="#444441" x="38" y="252" dominant-baseline="central">Verdivurdering</text>
<text font-family="sans-serif" font-size="10" fill="#888780" x="38" y="354" dominant-baseline="central">Planlegging → Design</text>
<rect x="38" y="260" width="52" height="26" rx="4" fill="#E8E6DE" stroke="#888780" stroke-width="0.5"/>
<text font-family="sans-serif" font-size="9" font-weight="500" fill="#444441" x="64" y="273" text-anchor="middle" dominant-baseline="central">KIT</text>
<rect x="96" y="260" width="52" height="26" rx="4" fill="#E8E6DE" stroke="#888780" stroke-width="0.5"/>
<text font-family="sans-serif" font-size="9" font-weight="500" fill="#444441" x="122" y="273" text-anchor="middle" dominant-baseline="central">DPIA</text>
<rect x="154" y="260" width="62" height="26" rx="4" fill="#E8E6DE" stroke="#888780" stroke-width="0.5"/>
<text font-family="sans-serif" font-size="9" font-weight="500" fill="#444441" x="185" y="273" text-anchor="middle" dominant-baseline="central">Sikkerhetsgrad.</text>
<line x1="64" y1="286" x2="64" y2="306" stroke="#888" stroke-width="1" marker-end="url(#arrow)"/>
<line x1="122" y1="286" x2="122" y2="306" stroke="#888" stroke-width="1" marker-end="url(#arrow)"/>
<line x1="185" y1="286" x2="185" y2="306" stroke="#888" stroke-width="1" marker-end="url(#arrow)"/>
<text font-family="sans-serif" font-size="9" fill="#5F5E5A" x="127" y="318" text-anchor="middle" dominant-baseline="central">↳ Klassifiseringsnivå</text>
<line x1="64" y1="238" x2="64" y2="156" stroke="#B4B2A9" stroke-width="0.5" stroke-dasharray="3 3"/>
<line x1="185" y1="238" x2="205" y2="156" stroke="#B4B2A9" stroke-width="0.5" stroke-dasharray="3 3"/>

<!-- Trusselvurdering -->
<rect x="234" y="238" width="152" height="110" rx="8" fill="#F1EFE8" stroke="#B4B2A9" stroke-width="0.5"/>
<text font-family="sans-serif" font-size="11" font-weight="500" fill="#444441" x="242" y="252" dominant-baseline="central">Trusselvurdering</text>
<text font-family="sans-serif" font-size="10" fill="#888780" x="242" y="354" dominant-baseline="central">Design</text>
<rect x="242" y="260" width="136" height="26" rx="4" fill="#E8E6DE" stroke="#888780" stroke-width="0.5"/>
<text font-family="sans-serif" font-size="9" font-weight="500" fill="#444441" x="310" y="273" text-anchor="middle" dominant-baseline="central">Vurdere trusselaktører</text>
<line x1="310" y1="286" x2="310" y2="306" stroke="#888" stroke-width="1" marker-end="url(#arrow)"/>
<text font-family="sans-serif" font-size="9" fill="#5F5E5A" x="310" y="318" text-anchor="middle" dominant-baseline="central">↳ Trusselbilde</text>
<line x1="310" y1="238" x2="205" y2="156" stroke="#B4B2A9" stroke-width="0.5" stroke-dasharray="3 3"/>

<!-- Sårbarhetsvurdering -->
<rect x="396" y="238" width="254" height="110" rx="8" fill="#F1EFE8" stroke="#B4B2A9" stroke-width="0.5"/>
<text font-family="sans-serif" font-size="11" font-weight="500" fill="#444441" x="404" y="252" dominant-baseline="central">Sårbarhetsvurdering</text>
<text font-family="sans-serif" font-size="10" fill="#888780" x="404" y="354" dominant-baseline="central">Design → Implementasjon → Verifikasjon</text>
<rect x="404" y="260" width="110" height="26" rx="4" fill="#E8E6DE" stroke="#888780" stroke-width="0.5"/>
<text font-family="sans-serif" font-size="9" font-weight="500" fill="#444441" x="459" y="273" text-anchor="middle" dominant-baseline="central">Identifisere sårbarheter</text>
<rect x="524" y="260" width="118" height="26" rx="4" fill="#E8E6DE" stroke="#888780" stroke-width="0.5"/>
<text font-family="sans-serif" font-size="9" font-weight="500" fill="#444441" x="583" y="268" text-anchor="middle" dominant-baseline="central">PEN-test</text>
<text font-family="sans-serif" font-size="8" fill="#888780" x="583" y="280" text-anchor="middle" dominant-baseline="central">(Verifikasjon)</text>
<line x1="459" y1="286" x2="459" y2="306" stroke="#888" stroke-width="1" marker-end="url(#arrow)"/>
<line x1="583" y1="286" x2="583" y2="306" stroke="#888" stroke-width="1" marker-end="url(#arrow)"/>
<text font-family="sans-serif" font-size="9" fill="#5F5E5A" x="521" y="318" text-anchor="middle" dominant-baseline="central">↳ Sikringstiltak</text>
<line x1="459" y1="238" x2="327" y2="156" stroke="#B4B2A9" stroke-width="0.5" stroke-dasharray="3 3"/>
<line x1="583" y1="238" x2="449" y2="156" stroke="#B4B2A9" stroke-width="0.5" stroke-dasharray="3 3"/>

<!-- BESKRIVELSER -->
<text font-family="sans-serif" font-size="14" font-weight="500" fill="#2C2C2A" x="340" y="388" text-anchor="middle">Beskrivelser som produseres</text>
<line x1="80" y1="395" x2="600" y2="395" stroke="#D3D1C7" stroke-width="0.5"/>

<rect x="30" y="404" width="106" height="58" rx="8" fill="#E6F1FB" stroke="#378ADD" stroke-width="0.5"/>
<text font-family="sans-serif" font-size="11" font-weight="500" fill="#0C447C" x="83" y="423" text-anchor="middle">System /</text>
<text font-family="sans-serif" font-size="11" font-weight="500" fill="#0C447C" x="83" y="438" text-anchor="middle">tjeneste</text>
<text font-family="sans-serif" font-size="10" fill="#185FA5" x="83" y="453" text-anchor="middle">Formål, brukere, jus</text>

<rect x="148" y="404" width="106" height="58" rx="8" fill="#E1F5EE" stroke="#1D9E75" stroke-width="0.5"/>
<text font-family="sans-serif" font-size="11" font-weight="500" fill="#085041" x="201" y="423" text-anchor="middle">Arkitektur</text>
<text font-family="sans-serif" font-size="10" fill="#0F6E56" x="201" y="438" text-anchor="middle">Komponenter</text>
<text font-family="sans-serif" font-size="10" fill="#0F6E56" x="201" y="453" text-anchor="middle">Datamodell, dataflyt</text>

<rect x="266" y="404" width="106" height="58" rx="8" fill="#FAEEDA" stroke="#BA7517" stroke-width="0.5"/>
<text font-family="sans-serif" font-size="11" font-weight="500" fill="#633806" x="319" y="423" text-anchor="middle">Teknisk</text>
<text font-family="sans-serif" font-size="10" fill="#854F0B" x="319" y="438" text-anchor="middle">Biblioteker, API</text>
<text font-family="sans-serif" font-size="10" fill="#854F0B" x="319" y="453" text-anchor="middle">Sikkerhetsmekanismer</text>

<rect x="384" y="404" width="106" height="58" rx="8" fill="#FAECE7" stroke="#D85A30" stroke-width="0.5"/>
<text font-family="sans-serif" font-size="11" font-weight="500" fill="#712B13" x="437" y="420" text-anchor="middle">Vurderings-</text>
<text font-family="sans-serif" font-size="11" font-weight="500" fill="#712B13" x="437" y="435" text-anchor="middle">beskrivelse</text>
<text font-family="sans-serif" font-size="10" fill="#993C1D" x="437" y="453" text-anchor="middle">Verdivurd., PEN-test</text>

<rect x="502" y="404" width="148" height="58" rx="8" fill="#EEEDFE" stroke="#7F77DD" stroke-width="0.5"/>
<text font-family="sans-serif" font-size="11" font-weight="500" fill="#3C3489" x="576" y="423" text-anchor="middle">Operasjonell drift</text>
<text font-family="sans-serif" font-size="10" fill="#534AB7" x="576" y="438" text-anchor="middle">Miljø, beredskap</text>
<text font-family="sans-serif" font-size="10" fill="#534AB7" x="576" y="453" text-anchor="middle">Endringshåndtering</text>

<!-- INPUT-LINJER: beskrivelser → vurderinger -->
<!-- System/tjeneste → Verdivurdering -->
<path d="M83 404 L83 360 L127 360 L127 348" fill="none" stroke="#378ADD" stroke-width="0.8" stroke-dasharray="4 3" marker-end="url(#arrow-input)"/>
<!-- Arkitektur → Verdivurdering -->
<path d="M180 404 L180 370 L127 370 L127 348" fill="none" stroke="#1D9E75" stroke-width="0.8" stroke-dasharray="4 3" marker-end="url(#arrow-input)"/>
<!-- Arkitektur → Trusselvurdering -->
<path d="M222 404 L222 375 L310 375 L310 348" fill="none" stroke="#1D9E75" stroke-width="0.8" stroke-dasharray="4 3" marker-end="url(#arrow-input)"/>
<!-- Teknisk → Sårbarhetsvurdering -->
<path d="M319 404 L319 380 L459 380 L459 348" fill="none" stroke="#BA7517" stroke-width="0.8" stroke-dasharray="4 3" marker-end="url(#arrow-input)"/>

<!-- LEGENDE -->
<rect x="30" y="480" width="620" height="44" rx="8" fill="none" stroke="#D3D1C7" stroke-width="0.5" stroke-dasharray="4 3"/>
<text font-family="sans-serif" font-size="11" fill="#5F5E5A" x="340" y="498" text-anchor="middle">Grå stiplet = fasetilhørighet · Farget stiplet med pil = input til vurdering</text>
<text font-family="sans-serif" font-size="11" fill="#5F5E5A" x="340" y="514" text-anchor="middle">Piler inni vurderingsbokser = output av aktivitet</text>

</svg>
